<svg xmlns="http://www.w3.org/2000/svg" xmlns:svg="http://www.w3.org/2000/svg" x="0" y="0" version="1.1" viewBox="0 0 100 100"><g><path style="text-indent:0;text-transform:none;direction:ltr;block-progression:tb;baseline-shift:baseline;color:#000;enable-background:accumulate" fill="#000" fill-opacity="1" stroke="none" marker="none" d="M 55.875 27.96875 A 1.0001 1.0001 0 0 0 55.03125 28.71875 L 43.03125 70.71875 A 1.0044998 1.0044998 0 0 0 44.96875 71.25 L 56.96875 29.25 A 1.0001 1.0001 0 0 0 55.875 27.96875 z M 33.9375 34.96875 A 1.0001 1.0001 0 0 0 33.5 35.125 L 9.5 49.125 A 1.0001 1.0001 0 0 0 9.5 50.84375 L 33.5 64.84375 A 1.0001 1.0001 0 1 0 34.5 63.125 L 11.96875 50 L 34.5 36.84375 A 1.0001 1.0001 0 0 0 33.9375 34.96875 z M 65.9375 34.96875 A 1.0001 1.0001 0 0 0 65.5 36.84375 L 88.03125 50 L 65.5 63.125 A 1.0001 1.0001 0 1 0 66.5 64.84375 L 90.5 50.84375 A 1.0001 1.0001 0 0 0 90.5 49.125 L 66.5 35.125 A 1.0001 1.0001 0 0 0 65.9375 34.96875 z" display="inline" overflow="visible" transform="translate(0,-952.36218) translate(0,952.36218)" visibility="visible"/></g></svg>